<pre>
Duration: 00:05:06.85, start: 0.000000, bitrate: 2330 kb/s
Stream #0:0(und): Video: h264 (High) (avc1 / 0x31637661), yuv420p, 1280x676 [SAR 1:1 DAR 320:169], 2135 kb/s, 2fps, 24 tbr, 24 tbn, 48 tbc

Metadata:
  creation_time   : 1970-01-01 00:00:00
  handler_name    : VideoHandler

Stream #0:1(eng): Audio: aac (mp4a / 0x6134706D), 44100 Hz, stereo, fltp, 192 kb/s
</pre>